<svg width="532" height="57" viewBox="0 0 532 57" fill="none" xmlns="http://www.w3.org/2000/svg">
<g filter="url(#filter0_d_8_8)">
<path d="M38.248 32.28C38.4613 34.2853 38.3333 36.3333 37.864 38.424C37.3947 40.5147 36.4773 42.072 35.112 43.096C34.8133 43.3093 34.408 43.5227 33.896 43.736C33.4267 43.9493 32.9573 44.2053 32.488 44.504C31.336 45.2293 29.9067 45.912 28.2 46.552C26.4933 47.192 24.7013 47.64 22.824 47.896C20.9893 48.1947 19.2613 48.1733 17.64 47.832C17.384 47.8747 17.1493 47.9387 16.936 48.024C16.7227 48.1093 16.488 48.1733 16.232 48.216C14.5253 47.704 12.9893 47.064 11.624 46.296C10.3013 45.528 9.02133 44.6107 7.784 43.544C7.016 42.6053 6.35467 41.368 5.8 39.832C5.288 38.2533 4.94667 36.7387 4.776 35.288C5.16 35.032 5.43733 34.584 5.608 33.944C5.77867 33.304 6.09867 32.8133 6.568 32.472C7.67733 31.6187 9.32 30.9787 11.496 30.552C13.7147 30.1253 16.104 30.296 18.664 31.064C19.944 31.448 21.1387 32.152 22.248 33.176C23.3573 34.1573 24.1467 35.2667 24.616 36.504C24.616 36.7173 24.5093 36.888 24.296 37.016C24.2107 37.0587 24.1253 37.144 24.04 37.272C23.9547 37.3573 23.976 37.5707 24.104 37.912C23.208 37.4 22.0773 36.888 20.712 36.376C19.3893 35.864 18.0027 35.5013 16.552 35.288C15.144 35.0747 13.8427 35.16 12.648 35.544C11.4533 35.8853 10.536 36.6747 9.896 37.912C9.98133 38.808 10.408 39.6187 11.176 40.344C11.944 41.0693 12.8827 41.688 13.992 42.2C15.144 42.6693 16.2747 43.032 17.384 43.288C18.536 43.544 19.496 43.6293 20.264 43.544C21.8 43.3733 23.3787 42.968 25 42.328C26.664 41.688 28.136 40.8987 29.416 39.96C30.7387 38.9787 31.6133 37.9333 32.04 36.824C32.4667 35.7147 32.5093 34.6693 32.168 33.688C31.8267 32.7067 31.2507 31.7893 30.44 30.936C29.6293 30.0827 28.712 29.336 27.688 28.696C26.7067 28.0133 25.7467 27.4587 24.808 27.032C24.04 26.6907 23.2933 26.264 22.568 25.752C21.8427 25.24 21.1387 24.8347 20.456 24.536C19.5173 24.0667 18.5787 23.6827 17.64 23.384C16.744 23.0427 15.976 22.5093 15.336 21.784C15.1653 21.6133 15.016 21.3573 14.888 21.016C14.8027 20.632 14.6533 20.2907 14.44 19.992C14.184 19.608 13.7573 19.2453 13.16 18.904C12.6053 18.5627 12.264 18.2213 12.136 17.88C11.8373 17.1973 11.624 16.3227 11.496 15.256C11.4107 14.1893 11.3893 13.2507 11.432 12.44C11.5173 10.8613 11.944 9.47467 12.712 8.28C13.5227 7.08533 14.3333 5.89067 15.144 4.696C16.0827 3.544 17.384 2.712 19.048 2.2C20.712 1.688 22.4827 1.47467 24.36 1.56C26.28 1.64533 28.0933 1.98667 29.8 2.584C31.5493 3.18133 32.936 4.01333 33.96 5.08C34.4293 5.93333 34.856 6.89333 35.24 7.96C35.6667 9.02666 35.9867 9.88 36.2 10.52C36.0293 11.5867 35.752 12.568 35.368 13.464C34.984 14.3173 34.6853 15.1493 34.472 15.96C33.7893 16.5573 32.9787 16.9627 32.04 17.176C31.1013 17.3467 30.184 17.2827 29.288 16.984C28.392 16.6853 27.6667 16.1093 27.112 15.256C26.856 14.232 26.8773 13.4 27.176 12.76C27.5173 12.12 27.9867 11.608 28.584 11.224C29.1813 10.7973 29.8 10.4347 30.44 10.136C30.3973 8.984 29.9707 8.088 29.16 7.448C28.3493 6.808 27.3467 6.38133 26.152 6.168C25 5.95467 23.784 5.93333 22.504 6.104C21.224 6.27466 20.0933 6.89333 19.112 7.96C18.1733 9.02666 17.5333 10.2853 17.192 11.736C16.8507 13.144 16.936 14.488 17.448 15.768C18.088 17.3467 19.112 18.648 20.52 19.672C21.9707 20.6533 23.592 21.5067 25.384 22.232C27.176 22.9573 28.9253 23.704 30.632 24.472C32.3387 25.24 33.7893 26.2 34.984 27.352C36.008 28.3333 36.6693 29.2293 36.968 30.04C37.2667 30.808 37.6933 31.5547 38.248 32.28ZM77.1015 38.296C76.9308 38.424 76.7815 38.5733 76.6535 38.744C76.5255 38.872 76.3335 38.936 76.0775 38.936C76.1628 39.5333 76.0562 40.024 75.7575 40.408C75.4588 40.792 75.1388 41.1333 74.7975 41.432C74.7122 41.5173 74.6055 41.624 74.4775 41.752C74.3922 41.8373 74.3068 41.9227 74.2215 42.008C73.2828 43.032 72.1735 44.12 70.8935 45.272C69.6135 46.3813 68.0348 47.1067 66.1575 47.448C63.9388 47.832 61.6562 47.8533 59.3095 47.512C57.0055 47.2133 55.0642 46.488 53.4855 45.336C52.3335 44.44 51.2668 43.3307 50.2855 42.008C49.3468 40.6853 48.6215 39.256 48.1095 37.72C47.5975 36.184 47.3842 34.7333 47.4695 33.368C47.5975 31.832 48.1308 30.4453 49.0695 29.208C50.0082 27.928 50.9255 26.5627 51.8215 25.112C52.0775 25.368 52.3762 25.496 52.7175 25.496C53.1015 25.496 53.2935 25.496 53.2935 25.496C53.0375 24.344 52.9522 22.9787 53.0375 21.4C53.1655 19.7787 53.2935 18.2427 53.4215 16.792C53.4642 16.6213 53.4855 16.4933 53.4855 16.408C54.1255 15.8107 54.7655 15.2133 55.4055 14.616C56.0882 14.0187 56.7708 13.4427 57.4535 12.888C58.3068 13.0587 59.0962 13.0373 59.8215 12.824C60.5895 12.568 61.2935 12.2907 61.9335 11.992C62.7015 11.6507 63.4055 11.4373 64.0455 11.352C64.6855 11.224 65.2402 11.5867 65.7095 12.44C67.6295 12.2267 69.1655 12.504 70.3175 13.272C71.4695 14.04 72.5575 14.9147 73.5815 15.896C73.8802 16.1947 74.1788 16.4933 74.4775 16.792C74.7762 17.0907 75.0962 17.368 75.4375 17.624C76.6748 20.952 77.3575 24.4293 77.4855 28.056C77.6135 31.64 77.4855 35.0533 77.1015 38.296ZM70.8935 25.112C70.3815 26.392 69.5495 27.4587 68.3975 28.312C67.2882 29.1653 66.0295 29.784 64.6215 30.168C63.2135 30.552 61.8055 30.6587 60.3975 30.488C58.9895 30.2747 57.7308 29.72 56.6215 28.824C55.5975 29.08 54.8082 29.592 54.2535 30.36C53.7415 31.128 53.4215 32.0027 53.2935 32.984C53.1655 33.9653 53.1442 34.904 53.2295 35.8C53.3575 36.696 53.5068 37.4 53.6775 37.912C53.7202 38.1253 53.8055 38.296 53.9335 38.424C54.0615 38.5093 54.1895 38.616 54.3175 38.744C54.4882 38.872 54.6375 39.0213 54.7655 39.192C54.8935 39.3627 54.9575 39.6187 54.9575 39.96C56.4508 41.1973 57.9442 41.9867 59.4375 42.328C60.9735 42.6693 62.4028 42.712 63.7255 42.456C65.0908 42.1573 66.2855 41.688 67.3095 41.048C68.3762 40.3653 69.2295 39.6613 69.8695 38.936C70.7655 37.912 71.3842 36.6107 71.7255 35.032C72.1095 33.4533 72.2802 31.7893 72.2375 30.04C72.2375 28.2907 72.0455 26.648 71.6615 25.112H70.8935ZM71.0855 24.664C71.3842 23.5547 71.2988 22.5093 70.8295 21.528C70.4028 20.504 69.7202 19.6293 68.7815 18.904C67.8855 18.136 66.8615 17.6027 65.7095 17.304C64.6002 16.9627 63.4695 16.92 62.3175 17.176C61.1655 17.432 60.1628 18.072 59.3095 19.096C58.8402 19.9493 58.5628 20.8027 58.4775 21.656C58.3922 22.4667 58.4775 23.128 58.7335 23.64C59.2028 24.6213 59.9922 25.2187 61.1015 25.432C62.2535 25.6453 63.4055 25.5813 64.5575 25.24C65.7522 24.8987 66.6268 24.3653 67.1815 23.64C68.0775 23.4693 68.8455 23.448 69.4855 23.576C70.1682 23.704 70.7015 24.0667 71.0855 24.664ZM128.89 41.112C128.719 42.3067 128.228 43.288 127.418 44.056C126.607 44.824 125.626 45.4213 124.474 45.848C123.322 46.232 122.148 46.488 120.954 46.616C119.759 46.7013 118.671 46.7013 117.69 46.616C116.111 45.976 115.044 45.208 114.49 44.312C113.978 43.3733 113.722 42.4347 113.722 41.496C113.722 39.0213 113.764 36.2267 113.85 33.112C113.935 29.9973 114.042 26.968 114.17 24.024C114.298 21.1227 113.38 19.3307 111.418 18.648C108.9 20.6107 106.938 22.6373 105.53 24.728C104.122 26.776 103.055 28.952 102.33 31.256C101.647 33.5173 101.114 35.9493 100.73 38.552C100.388 41.112 100.026 43.864 99.6415 46.808C99.4708 46.7227 99.2575 46.68 99.0015 46.68C98.7882 46.68 98.5535 46.7013 98.2975 46.744C97.8708 46.744 97.4228 46.744 96.9535 46.744C96.4842 46.7013 96.0362 46.5307 95.6095 46.232C95.1402 45.8907 94.8628 45.5067 94.7775 45.08C94.7348 44.6107 94.4575 44.2267 93.9455 43.928C93.7322 42.9467 93.7322 41.9867 93.9455 41.048C94.2015 40.1093 94.5215 39.128 94.9055 38.104C95.1615 37.3787 95.4175 36.632 95.6735 35.864C95.9295 35.0533 96.1002 34.2 96.1855 33.304C96.3562 31.9387 96.4415 30.5307 96.4415 29.08C96.4842 27.5867 96.4415 26.1787 96.3135 24.856C96.1855 23.4907 95.9295 22.3813 95.5455 21.528C95.3748 21.1013 94.9908 20.568 94.3935 19.928C93.7962 19.2453 93.1348 18.6907 92.4095 18.264C91.7268 17.8373 91.1508 17.7733 90.6815 18.072C90.4682 18.2 90.1908 18.5413 89.8495 19.096C89.5508 19.608 89.3162 20.12 89.1455 20.632C89.0175 21.144 89.1028 21.5067 89.4015 21.72C89.0602 22.488 88.4415 22.936 87.5455 23.064C86.6922 23.192 85.9028 23 85.1775 22.488C85.2628 21.5067 85.3482 20.4613 85.4335 19.352C85.5615 18.2 85.7962 17.1333 86.1375 16.152C86.5215 15.128 87.1188 14.3173 87.9295 13.72C89.0815 12.8667 90.3402 12.5253 91.7055 12.696C93.0708 12.8667 94.3935 13.3147 95.6735 14.04C96.9535 14.7227 98.0415 15.448 98.9375 16.216C99.4922 17.0267 99.9402 18.136 100.282 19.544C100.623 20.952 100.9 22.3173 101.114 23.64C102.266 22.4453 103.119 21.4 103.674 20.504C104.271 19.5653 104.826 18.712 105.338 17.944C105.892 17.176 106.596 16.408 107.45 15.64C108.303 14.872 109.562 14.04 111.226 13.144C112.591 12.9307 113.914 13.1867 115.194 13.912C116.516 14.6373 117.711 15.4693 118.778 16.408C119.546 18.4133 119.866 20.4613 119.738 22.552C119.61 24.6427 119.396 26.7547 119.097 28.888C118.756 31.0213 118.522 33.176 118.394 35.352C118.266 37.4853 118.586 39.5973 119.354 41.688C119.908 42.072 120.42 42.1787 120.89 42.008C121.402 41.7947 121.914 41.5387 122.426 41.24C122.724 41.0267 123.023 40.8347 123.322 40.664C123.62 40.4933 123.94 40.3867 124.282 40.344C124.751 40.2587 125.178 40.2587 125.562 40.344C125.946 40.4293 126.351 40.536 126.778 40.664C127.076 40.7493 127.396 40.8347 127.738 40.92C128.079 41.0053 128.463 41.0693 128.89 41.112ZM169.174 43.608C168.79 44.4187 168.086 45.1013 167.062 45.656C166.081 46.2107 164.971 46.6373 163.734 46.936C162.497 47.192 161.259 47.2347 160.022 47.064C158.827 46.936 157.803 46.5733 156.95 45.976C155.926 45.2507 155.265 44.1413 154.966 42.648C154.667 41.112 154.582 39.384 154.71 37.464C154.838 35.544 155.009 33.5813 155.222 31.576C155.307 30.936 155.371 30.296 155.414 29.656C155.499 29.016 155.563 28.3973 155.606 27.8C155.606 27.5013 155.606 27.224 155.606 26.968C155.649 26.6693 155.67 26.3707 155.67 26.072C155.67 25.5173 155.67 24.984 155.67 24.472C155.713 23.96 155.819 23.512 155.99 23.128C155.905 22.1893 155.563 21.3573 154.966 20.632C154.411 19.9067 153.729 19.3947 152.918 19.096C152.107 18.7973 151.275 18.8613 150.422 19.288C148.886 20.0133 147.585 20.824 146.518 21.72C145.451 22.5733 144.427 23.2987 143.446 23.896C143.489 24.5787 143.467 25.56 143.382 26.84C143.339 28.0773 143.254 29.4 143.126 30.808C143.041 32.216 142.955 33.6027 142.87 34.968C142.785 36.3333 142.742 37.5493 142.742 38.616C142.785 39.64 142.891 40.344 143.062 40.728C143.361 41.368 143.787 41.816 144.342 42.072C144.897 42.328 145.451 42.6053 146.006 42.904C146.603 43.16 147.03 43.6507 147.286 44.376C146.859 45.528 146.027 46.296 144.79 46.68C143.553 47.064 142.187 47.2133 140.694 47.128C139.243 47.0853 137.963 46.9573 136.854 46.744C136.171 46.1467 135.766 45.4427 135.638 44.632C135.553 43.7787 135.51 42.8613 135.51 41.88C135.51 41.752 135.51 41.624 135.51 41.496C135.51 41.368 135.51 41.24 135.51 41.112C135.681 41.0693 135.83 41.048 135.958 41.048C136.129 41.048 136.257 41.048 136.342 41.048C136.641 41.0907 136.875 41.048 137.046 40.92C137.515 40.408 137.771 39.6187 137.814 38.552C137.899 37.4427 137.942 36.2693 137.942 35.032C137.942 34.5627 137.942 34.0933 137.942 33.624C137.942 33.112 137.963 32.6427 138.006 32.216C138.177 29.1013 138.219 26.0507 138.134 23.064C138.049 20.0773 137.942 17.1547 137.814 14.296C137.771 13.4853 137.729 12.696 137.686 11.928C137.686 11.1173 137.665 10.328 137.622 9.56C137.622 9.34666 137.622 9.13333 137.622 8.92C137.622 8.70667 137.643 8.49333 137.686 8.28C137.686 8.024 137.686 7.78933 137.686 7.576C137.686 7.32 137.665 7.08533 137.622 6.872C137.537 6.488 137.387 6.12533 137.174 5.784C136.961 5.4 136.747 5.03733 136.534 4.696C136.193 4.184 135.894 3.69333 135.638 3.224C135.382 2.712 135.339 2.17866 135.51 1.624C135.979 1.45333 136.47 1.26133 136.982 1.048C137.494 0.834663 138.091 0.578664 138.774 0.279999C139.457 0.62133 140.161 0.94133 140.886 1.24C141.654 1.496 142.315 1.83733 142.87 2.264C143.467 2.648 143.851 3.224 144.022 3.992C144.107 4.41866 144.107 4.888 144.022 5.4C143.979 5.912 143.894 6.424 143.766 6.936C143.681 7.23466 143.617 7.55467 143.574 7.896C143.531 8.19467 143.489 8.49333 143.446 8.792C143.361 9.944 143.318 10.9253 143.318 11.736C143.318 12.5467 143.318 13.3147 143.318 14.04C143.361 14.68 143.382 15.3413 143.382 16.024C143.382 16.7067 143.339 17.5173 143.254 18.456C144.065 17.9013 145.067 17.2613 146.262 16.536C147.457 15.768 148.715 15.192 150.038 14.808C152.427 14.7227 154.497 15.0427 156.246 15.768C158.038 16.4933 159.446 17.6027 160.47 19.096C160.683 19.3947 160.875 19.928 161.046 20.696C161.259 21.464 161.451 22.3173 161.622 23.256C161.793 24.152 161.921 24.984 162.006 25.752C162.091 26.52 162.091 27.0533 162.006 27.352C161.878 28.0773 161.643 28.8453 161.302 29.656C161.003 30.424 160.79 31.2133 160.662 32.024C160.363 33.7307 160.15 35.3093 160.022 36.76C159.894 38.2107 159.915 39.6613 160.086 41.112C160.598 41.8373 161.217 42.2 161.942 42.2C162.71 42.2 163.499 42.136 164.31 42.008C165.121 41.88 165.931 41.816 166.742 41.816C167.553 41.7733 168.299 42.1147 168.982 42.84C168.854 42.968 168.79 43.1173 168.79 43.288C168.833 43.4587 168.961 43.5653 169.174 43.608ZM203.727 38.296C203.556 38.424 203.407 38.5733 203.279 38.744C203.151 38.872 202.959 38.936 202.703 38.936C202.788 39.5333 202.681 40.024 202.382 40.408C202.084 40.792 201.764 41.1333 201.423 41.432C201.337 41.5173 201.231 41.624 201.103 41.752C201.017 41.8373 200.932 41.9227 200.847 42.008C199.908 43.032 198.799 44.12 197.519 45.272C196.239 46.3813 194.66 47.1067 192.783 47.448C190.564 47.832 188.281 47.8533 185.935 47.512C183.631 47.2133 181.689 46.488 180.111 45.336C178.959 44.44 177.892 43.3307 176.911 42.008C175.972 40.6853 175.247 39.256 174.735 37.72C174.223 36.184 174.009 34.7333 174.095 33.368C174.223 31.832 174.756 30.4453 175.695 29.208C176.633 27.928 177.551 26.5627 178.447 25.112C178.703 25.368 179.001 25.496 179.343 25.496C179.727 25.496 179.919 25.496 179.919 25.496C179.663 24.344 179.577 22.9787 179.663 21.4C179.791 19.7787 179.919 18.2427 180.047 16.792C180.089 16.6213 180.111 16.4933 180.111 16.408C180.751 15.8107 181.391 15.2133 182.031 14.616C182.713 14.0187 183.396 13.4427 184.079 12.888C184.932 13.0587 185.721 13.0373 186.447 12.824C187.215 12.568 187.919 12.2907 188.559 11.992C189.327 11.6507 190.031 11.4373 190.671 11.352C191.311 11.224 191.865 11.5867 192.335 12.44C194.255 12.2267 195.791 12.504 196.943 13.272C198.095 14.04 199.183 14.9147 200.207 15.896C200.505 16.1947 200.804 16.4933 201.103 16.792C201.401 17.0907 201.721 17.368 202.062 17.624C203.3 20.952 203.983 24.4293 204.111 28.056C204.239 31.64 204.111 35.0533 203.727 38.296ZM197.519 25.112C197.007 26.392 196.175 27.4587 195.023 28.312C193.913 29.1653 192.655 29.784 191.247 30.168C189.839 30.552 188.431 30.6587 187.023 30.488C185.615 30.2747 184.356 29.72 183.247 28.824C182.223 29.08 181.433 29.592 180.879 30.36C180.367 31.128 180.047 32.0027 179.919 32.984C179.791 33.9653 179.769 34.904 179.855 35.8C179.983 36.696 180.132 37.4 180.303 37.912C180.345 38.1253 180.431 38.296 180.559 38.424C180.687 38.5093 180.815 38.616 180.943 38.744C181.113 38.872 181.263 39.0213 181.391 39.192C181.519 39.3627 181.583 39.6187 181.583 39.96C183.076 41.1973 184.569 41.9867 186.062 42.328C187.599 42.6693 189.028 42.712 190.351 42.456C191.716 42.1573 192.911 41.688 193.935 41.048C195.001 40.3653 195.855 39.6613 196.495 38.936C197.391 37.912 198.009 36.6107 198.351 35.032C198.735 33.4533 198.905 31.7893 198.863 30.04C198.863 28.2907 198.671 26.648 198.287 25.112H197.519ZM197.711 24.664C198.009 23.5547 197.924 22.5093 197.455 21.528C197.028 20.504 196.345 19.6293 195.407 18.904C194.511 18.136 193.487 17.6027 192.335 17.304C191.225 16.9627 190.095 16.92 188.943 17.176C187.791 17.432 186.788 18.072 185.935 19.096C185.465 19.9493 185.188 20.8027 185.103 21.656C185.017 22.4667 185.103 23.128 185.359 23.64C185.828 24.6213 186.617 25.2187 187.727 25.432C188.879 25.6453 190.031 25.5813 191.183 25.24C192.377 24.8987 193.252 24.3653 193.807 23.64C194.703 23.4693 195.471 23.448 196.111 23.576C196.793 23.704 197.327 24.0667 197.711 24.664ZM268.891 34.52C268.336 35.7147 267.76 36.6747 267.163 37.4C266.565 38.1253 265.883 38.7867 265.115 39.384C264.347 39.9813 263.387 40.7067 262.235 41.56C260.827 42.6267 259.461 43.5653 258.139 44.376C256.859 45.144 255.472 45.5707 253.979 45.656C253.083 46.0827 251.931 46.4453 250.523 46.744C249.115 47.0427 247.643 47.2347 246.107 47.32C244.571 47.4053 243.099 47.384 241.691 47.256C240.283 47.1707 239.088 46.9787 238.107 46.68C237.808 46.7227 237.552 46.7867 237.339 46.872C237.125 46.9147 236.869 46.9787 236.571 47.064C236.528 46.7227 236.357 46.4667 236.059 46.296C235.76 46.1253 235.525 45.912 235.355 45.656C234.331 45.4427 233.499 45.0587 232.859 44.504C232.219 43.9067 231.664 43.2453 231.195 42.52C230.725 41.752 230.213 41.048 229.659 40.408C228.891 38.5733 228.763 37.1653 229.275 36.184C229.787 35.16 230.576 34.3493 231.643 33.752C232.709 33.1547 233.883 32.664 235.163 32.28C236.485 31.896 237.595 31.4053 238.491 30.808C238.491 30.2533 238.491 29.6773 238.491 29.08C238.491 28.4827 238.512 27.864 238.555 27.224C238.597 24.792 238.555 22.1893 238.427 19.416C238.341 16.6 237.787 14.04 236.763 11.736C236.848 11.5227 236.869 11.3093 236.827 11.096C236.827 10.84 236.805 10.584 236.763 10.328C236.72 10.1573 236.677 9.98667 236.635 9.816C236.592 9.64533 236.571 9.45333 236.571 9.24C235.717 9.19733 234.971 9.09067 234.331 8.92C233.691 8.74933 233.115 8.38666 232.603 7.832C234.011 6.72267 235.717 5.656 237.723 4.632C239.728 3.56533 241.904 2.69066 244.251 2.008C246.64 1.32533 249.072 0.941331 251.547 0.855999C254.064 0.727998 256.517 1.02666 258.907 1.752C259.077 1.79467 259.333 1.92266 259.675 2.136C259.931 2.30666 260.229 2.47733 260.571 2.648C260.912 2.81867 261.275 2.84 261.659 2.712C264.304 4.33333 266.416 6.40266 267.995 8.92C269.573 11.3947 270.64 14.104 271.195 17.048C271.749 19.9493 271.813 22.9147 271.387 25.944C271.003 28.9733 270.171 31.832 268.891 34.52ZM265.179 26.648C265.52 24.3867 265.541 22.104 265.243 19.8C264.944 17.4533 264.304 15.2773 263.323 13.272C262.341 11.2667 260.997 9.58133 259.291 8.216C257.627 6.85067 255.6 6.01867 253.211 5.72C252.187 5.89066 250.928 6.04 249.435 6.168C247.941 6.25333 246.469 6.46666 245.019 6.808C243.568 7.10666 242.373 7.704 241.435 8.6C242.373 9.496 243.056 10.52 243.483 11.672C243.909 12.824 244.08 14.168 243.995 15.704C243.696 16.3867 243.525 17.304 243.483 18.456C243.44 19.5653 243.419 20.696 243.419 21.848C243.419 22.232 243.419 22.616 243.419 23C243.419 23.384 243.419 23.7467 243.419 24.088V24.152C243.376 25.2187 243.355 26.264 243.355 27.288C243.397 28.312 243.547 29.336 243.803 30.36C245.552 30.488 247.195 30.8293 248.731 31.384C250.267 31.896 251.419 32.664 252.187 33.688C252.955 34.6693 253.04 35.928 252.443 37.464C251.675 37.464 250.843 37.3787 249.947 37.208C249.093 37.0373 248.24 36.8667 247.387 36.696C246.661 36.5253 245.957 36.376 245.275 36.248C244.635 36.12 244.08 36.056 243.611 36.056C243.525 36.3547 243.483 36.6533 243.483 36.952C243.483 37.208 243.483 37.4853 243.483 37.784C243.44 38.2107 243.397 38.6373 243.355 39.064C243.312 39.4907 243.141 39.9387 242.843 40.408C241.947 40.664 241.264 40.6213 240.795 40.28C240.325 39.9387 239.877 39.5333 239.451 39.064C239.195 38.7653 238.896 38.4667 238.555 38.168C238.213 37.8693 237.808 37.6347 237.339 37.464C236.912 37.5493 236.507 37.72 236.123 37.976C235.781 38.1893 235.525 38.5307 235.355 39C235.483 39.2987 235.739 39.704 236.123 40.216C236.549 40.6853 236.827 41.0907 236.955 41.432C238.32 42.0293 239.856 42.4773 241.562 42.776C243.269 43.032 244.997 43.096 246.747 42.968C248.496 42.84 250.075 42.5413 251.483 42.072C252.293 41.7733 253.168 41.304 254.107 40.664C255.045 40.024 255.984 39.384 256.923 38.744C259.056 37.2507 260.848 35.5867 262.299 33.752C263.792 31.8747 264.752 29.5067 265.179 26.648ZM311.231 24.92C310.548 26.584 309.652 27.8213 308.543 28.632C307.476 29.4427 306.41 30.0827 305.343 30.552C304.276 30.9787 303.402 31.512 302.719 32.152C302.25 32.28 301.503 32.3867 300.479 32.472C299.455 32.5147 298.303 32.4933 297.023 32.408C295.743 32.3227 294.442 32.1093 293.119 31.768C291.839 31.4267 290.687 30.9147 289.663 30.232C289.066 30.872 288.703 31.64 288.575 32.536C288.49 33.3893 288.554 34.264 288.767 35.16C288.98 36.056 289.258 36.8453 289.599 37.528C289.983 38.2107 290.324 38.7013 290.623 39C291.135 38.9573 291.626 39.1067 292.095 39.448C292.564 39.7467 292.991 40.0453 293.375 40.344C293.546 40.472 293.695 40.6 293.823 40.728C293.951 40.8133 294.058 40.8773 294.143 40.92C295.551 41.7733 296.98 42.2213 298.431 42.264C299.924 42.264 301.354 41.9867 302.719 41.432C304.084 40.8773 305.258 40.1947 306.239 39.384C307.05 38.8293 307.69 38.0827 308.159 37.144C308.671 36.2053 309.119 35.224 309.503 34.2C309.93 33.1333 310.378 32.1947 310.847 31.384C311.316 32.408 311.594 33.6453 311.679 35.096C311.764 36.5467 311.487 38.296 310.847 40.344C310.548 41.2827 310.036 42.136 309.311 42.904C308.628 43.6293 307.924 44.248 307.199 44.76C306.474 45.272 305.94 45.6773 305.599 45.976C305.13 46.1467 304.404 46.3813 303.423 46.68C302.442 46.936 301.375 47.1493 300.223 47.32C299.071 47.4907 297.983 47.5333 296.959 47.448C295.935 47.3627 295.124 47.0853 294.527 46.616C293.503 46.7013 292.394 46.36 291.199 45.592C290.004 44.7813 288.895 43.9493 287.871 43.096C287.402 42.712 286.954 42.3707 286.527 42.072C286.1 41.7307 285.716 41.4747 285.375 41.304C284.778 40.3653 284.308 39.2133 283.967 37.848C283.668 36.4827 283.519 35.0533 283.519 33.56C283.519 32.024 283.69 30.5733 284.031 29.208C284.116 28.8667 284.287 28.5253 284.543 28.184C284.799 27.8427 284.948 27.48 284.991 27.096C285.034 26.584 284.991 26.0507 284.863 25.496C284.735 24.9413 284.586 24.3867 284.415 23.832C284.159 22.8507 283.967 21.8907 283.839 20.952C283.754 20.0133 284.138 19.1387 284.991 18.328C285.674 18.7973 286.25 19.3733 286.719 20.056C287.188 20.696 287.658 21.3573 288.127 22.04C289.194 20.6747 290.495 19.3947 292.031 18.2C293.61 17.0053 295.338 16.024 297.215 15.256C299.092 14.4453 301.034 13.976 303.039 13.848C305.044 13.72 307.007 14.04 308.927 14.808C310.079 16.1733 310.975 17.6667 311.615 19.288C312.255 20.9093 312.127 22.7867 311.231 24.92ZM304.447 19.864C302.655 19.4373 300.906 19.4587 299.199 19.928C297.535 20.3973 296.02 21.144 294.655 22.168C293.332 23.1493 292.287 24.2587 291.519 25.496C292.074 25.9653 292.991 26.456 294.271 26.968C295.594 27.4373 297.023 27.7147 298.559 27.8C300.095 27.8853 301.439 27.6293 302.591 27.032C304.042 26.2213 304.98 25.3253 305.407 24.344C305.834 23.32 305.919 22.3813 305.663 21.528C305.45 20.6747 305.044 20.12 304.447 19.864ZM387.577 28.44C387.534 28.5253 387.406 28.6533 387.193 28.824C386.98 29.0373 386.809 29.2507 386.681 29.464C386.553 29.6773 386.617 29.912 386.873 30.168C385.508 30.424 384.27 30.3387 383.161 29.912C382.052 29.4853 381.028 28.9093 380.089 28.184C379.15 27.416 378.276 26.648 377.465 25.88L377.401 25.816C376.078 28.248 374.564 30.7013 372.857 33.176C371.15 35.608 369.273 37.8693 367.225 39.96C365.177 42.0507 362.937 43.7787 360.505 45.144C360.164 45.5707 359.673 46.0613 359.033 46.616C358.436 47.1707 357.774 47.5333 357.049 47.704C356.366 47.9173 355.684 47.704 355.001 47.064C354.276 46.936 353.465 46.5307 352.569 45.848C351.716 45.1653 350.884 44.3973 350.073 43.544C349.262 42.6907 348.558 41.9013 347.961 41.176C347.406 40.408 347.044 39.8747 346.873 39.576C345.422 37.144 344.654 34.3493 344.569 31.192C344.526 28.0347 345.294 25.0267 346.873 22.168C346.958 21.9973 347.044 21.8053 347.129 21.592C347.214 21.3787 347.321 21.1653 347.449 20.952C347.876 19.9707 348.345 18.8613 348.857 17.624C349.369 16.344 349.753 15.0213 350.009 13.656C350.265 12.2907 350.265 10.9467 350.009 9.624C349.796 8.42933 349.284 7.34133 348.473 6.36C347.662 5.37866 346.574 5.016 345.209 5.272C343.502 5.57066 342.244 6.31733 341.433 7.512C340.622 8.664 340.388 9.77333 340.729 10.84C341.07 11.096 341.412 11.352 341.753 11.608C342.137 11.8213 342.542 12.0347 342.969 12.248C343.31 11.9493 343.502 11.5013 343.545 10.904C343.63 10.3067 343.716 9.73067 343.801 9.176C343.886 8.57867 344.121 8.152 344.505 7.896C344.718 8.23733 345.017 8.408 345.401 8.408C345.785 8.36533 346.105 8.536 346.361 8.92C346.788 9.56 346.958 10.4133 346.873 11.48C346.83 12.5467 346.66 13.592 346.361 14.616C346.062 15.5973 345.721 16.3653 345.337 16.92C344.057 17.0907 342.798 16.8987 341.561 16.344C340.324 15.7893 339.236 15 338.297 13.976C337.358 12.952 336.676 11.8213 336.249 10.584C335.822 9.34666 335.758 8.152 336.057 7C336.356 6.872 336.548 6.63733 336.633 6.296C336.761 5.95466 336.846 5.61333 336.889 5.272C337.742 4.16267 338.809 3.24533 340.089 2.52C341.412 1.79467 342.82 1.304 344.313 1.048C345.849 0.749331 347.342 0.770665 348.793 1.112C350.286 1.41066 351.609 2.09333 352.761 3.16C352.932 3.71466 353.188 4.20533 353.529 4.632C353.913 5.05866 354.297 5.44267 354.681 5.784C354.809 6.808 355.086 7.512 355.513 7.896C356.068 10.4987 356.004 13.208 355.321 16.024C354.638 18.84 353.678 21.4 352.441 23.704C351.417 25.624 350.756 27.672 350.457 29.848C350.158 31.9813 350.329 34.008 350.969 35.928C351.609 37.8053 352.782 39.3627 354.489 40.6C356.238 41.0693 357.796 40.9413 359.161 40.216C360.526 39.4907 361.764 38.4453 362.873 37.08C364.025 35.672 365.113 34.2213 366.137 32.728C366.734 31.8747 367.31 31.064 367.865 30.296C368.462 29.4853 369.06 28.7813 369.657 28.184C369.7 27.2453 369.977 26.4347 370.489 25.752C371.044 25.0267 371.62 24.344 372.217 23.704C372.814 23.0213 373.22 22.296 373.433 21.528C373.604 20.8027 373.604 20.0133 373.433 19.16C373.305 18.3067 373.113 17.432 372.857 16.536C372.686 15.8533 372.516 15.192 372.345 14.552C372.217 13.8693 372.132 13.1867 372.089 12.504C372.004 11.0533 372.302 9.60266 372.985 8.152C373.668 6.65866 374.329 5.464 374.969 4.568C375.353 4.056 375.972 3.62933 376.825 3.288C377.678 2.904 378.553 2.712 379.449 2.712C380.388 2.712 381.177 2.94666 381.817 3.416C382.457 3.88533 382.756 4.67466 382.713 5.784C382.244 6.72266 381.945 7.704 381.817 8.728C381.732 9.70933 381.668 10.712 381.625 11.736C381.625 12.4187 381.582 13.1227 381.497 13.848C381.454 14.5307 381.348 15.2133 381.177 15.896C380.964 16.7067 380.708 17.3893 380.409 17.944C380.11 18.456 379.961 18.9253 379.961 19.352C379.961 20.9307 380.43 22.2533 381.369 23.32C382.308 24.344 383.268 25.3467 384.249 26.328C385.06 26.4133 385.764 26.6267 386.361 26.968C386.958 27.2667 387.364 27.7573 387.577 28.44ZM406.85 45.336C406.295 46.104 405.506 46.7013 404.482 47.128C403.501 47.5547 402.434 47.7893 401.282 47.832C400.173 47.9173 399.127 47.768 398.146 47.384C397.165 47 396.397 46.4027 395.842 45.592C395.33 44.7813 395.159 43.736 395.33 42.456C395.842 42.4133 396.183 42.2213 396.354 41.88C396.567 41.5387 396.951 41.368 397.506 41.368C397.975 41.0693 398.317 40.664 398.53 40.152C398.743 39.5973 398.871 38.9787 398.914 38.296C398.957 36.9733 398.914 35.3733 398.786 33.496C398.701 31.576 398.594 29.6987 398.466 27.864C398.423 27.1813 398.381 26.5413 398.338 25.944C398.295 25.304 398.253 24.6853 398.21 24.088C398.167 23.3627 398.082 22.68 397.954 22.04C397.826 21.4 397.677 20.76 397.506 20.12C397.293 19.1387 397.101 18.2 396.93 17.304C396.802 16.408 396.866 15.4907 397.122 14.552C398.615 14.296 399.831 14.616 400.77 15.512C401.751 16.3653 402.455 17.4747 402.882 18.84C403.351 20.2053 403.522 21.528 403.394 22.808C403.309 23.32 403.138 23.6827 402.882 23.896C402.967 24.9627 403.01 26.072 403.01 27.224C403.053 28.3333 403.074 29.4853 403.074 30.68C403.031 32.6853 403.053 34.6693 403.138 36.632C403.223 38.5947 403.501 40.408 403.97 42.072C404.951 42.072 405.634 42.264 406.018 42.648C406.445 42.9893 406.701 43.416 406.786 43.928C406.871 44.44 406.893 44.9093 406.85 45.336ZM403.97 4.376C404.141 5.82667 403.97 7.128 403.458 8.28C402.989 9.432 402.263 10.1787 401.282 10.52C400.599 10.6907 399.831 10.6907 398.978 10.52C398.167 10.3493 397.421 10.0507 396.738 9.624C396.055 9.19733 395.586 8.70666 395.33 8.152C394.903 7.08533 394.861 5.99733 395.202 4.888C395.543 3.736 396.162 2.79733 397.058 2.072C397.997 1.34666 399.106 1.09066 400.386 1.304C401.154 1.432 401.773 1.77333 402.242 2.328C402.711 2.88266 403.287 3.56533 403.97 4.376ZM454.901 33.24C454.773 33.4107 454.56 33.4747 454.261 33.432C454.133 33.3893 454.005 33.3893 453.877 33.432C453.749 33.432 453.642 33.5387 453.557 33.752C452.618 34.0933 451.765 34.1787 450.997 34.008C450.272 33.8373 449.546 33.6027 448.821 33.304C448.437 33.176 448.032 33.048 447.605 32.92C447.221 32.7493 446.794 32.6213 446.325 32.536C445.6 34.7973 444.533 36.7387 443.125 38.36C441.717 39.9813 440.288 41.5813 438.837 43.16C438.752 43.16 438.41 43.352 437.813 43.736C437.258 44.0773 436.618 44.4827 435.893 44.952C435.21 45.4213 434.592 45.848 434.037 46.232C433.525 46.616 433.248 46.8507 433.205 46.936C431.797 47.448 430.346 47.7893 428.853 47.96C427.402 48.1307 426.037 48.024 424.757 47.64C423.52 47.2987 422.517 46.5947 421.749 45.528C421.408 44.6747 421.088 43.544 420.789 42.136C420.49 40.728 420.298 39.4053 420.213 38.168C420.085 35.9493 420.192 33.9227 420.533 32.088C420.874 30.2107 421.258 28.4187 421.685 26.712C421.728 26.5413 421.77 26.3707 421.813 26.2C421.856 26.0293 421.898 25.8587 421.941 25.688C422.282 24.92 422.517 24.0667 422.645 23.128C422.816 22.1893 422.816 21.2933 422.645 20.44C422.517 19.5867 422.154 18.9467 421.557 18.52C420.576 18.5627 419.808 18.84 419.253 19.352C418.698 19.8213 418.229 20.3973 417.845 21.08C417.461 21.72 417.056 22.36 416.629 23C416.245 23.64 415.733 24.152 415.093 24.536C414.794 24.3227 414.56 24.2373 414.389 24.28C414.218 24.3227 413.941 24.28 413.557 24.152C412.789 22.7867 412.618 21.528 413.045 20.376C413.514 19.224 414.048 18.136 414.645 17.112C414.773 16.8987 414.901 16.6853 415.029 16.472C415.157 16.2587 415.285 16.0453 415.413 15.832C416.565 15.192 417.802 14.6373 419.125 14.168C420.448 13.656 422.005 13.4 423.797 13.4C424.821 14.04 425.738 14.68 426.549 15.32C427.402 15.9173 428.021 16.7707 428.405 17.88C428.746 19.928 428.661 21.912 428.149 23.832C427.68 25.7093 427.125 27.5867 426.485 29.464C426.186 30.232 425.909 30.9787 425.653 31.704C425.44 32.4293 425.226 33.176 425.013 33.944C425.013 34.2427 425.12 34.456 425.333 34.584C424.949 35.1813 424.757 36.056 424.757 37.208C424.757 38.36 424.906 39.512 425.205 40.664C425.546 41.816 425.93 42.712 426.357 43.352C427.936 43.48 429.514 43.288 431.093 42.776C432.672 42.264 434.08 41.496 435.317 40.472C436.554 39.448 437.45 38.232 438.005 36.824C439.456 35.7147 440.565 34.3067 441.333 32.6C442.101 30.8933 442.698 29.1227 443.125 27.288C443.21 26.9467 443.232 26.392 443.189 25.624C443.189 24.856 443.189 24.0453 443.189 23.192C443.146 22.68 443.125 22.1893 443.125 21.72C443.125 21.2507 443.125 20.8667 443.125 20.568C443.125 20.184 443.104 19.8 443.061 19.416C443.061 19.032 443.04 18.6693 442.997 18.328C442.954 17.4747 442.933 16.7067 442.933 16.024C442.976 15.3413 443.253 14.7653 443.765 14.296C444.405 13.6987 445.301 13.272 446.453 13.016C447.648 12.7173 448.693 12.9093 449.589 13.592C449.418 13.976 449.397 14.296 449.525 14.552C449.696 14.808 449.888 15.0427 450.101 15.256C450.229 15.4267 450.336 15.5547 450.421 15.64C450.122 16.664 449.824 17.88 449.525 19.288C449.269 20.6533 449.077 22.04 448.949 23.448C448.864 24.856 448.906 26.136 449.077 27.288C449.205 27.928 449.525 28.4613 450.037 28.888C450.549 29.272 451.146 29.656 451.829 30.04C452.512 30.3813 453.13 30.808 453.685 31.32C454.282 31.7893 454.688 32.4293 454.901 33.24ZM490.856 24.92C490.173 26.584 489.277 27.8213 488.168 28.632C487.101 29.4427 486.035 30.0827 484.968 30.552C483.901 30.9787 483.027 31.512 482.344 32.152C481.875 32.28 481.128 32.3867 480.104 32.472C479.08 32.5147 477.928 32.4933 476.648 32.408C475.368 32.3227 474.067 32.1093 472.744 31.768C471.464 31.4267 470.312 30.9147 469.288 30.232C468.691 30.872 468.328 31.64 468.2 32.536C468.115 33.3893 468.179 34.264 468.392 35.16C468.605 36.056 468.883 36.8453 469.224 37.528C469.608 38.2107 469.949 38.7013 470.248 39C470.76 38.9573 471.251 39.1067 471.72 39.448C472.189 39.7467 472.616 40.0453 473 40.344C473.171 40.472 473.32 40.6 473.448 40.728C473.576 40.8133 473.683 40.8773 473.768 40.92C475.176 41.7733 476.605 42.2213 478.056 42.264C479.549 42.264 480.979 41.9867 482.344 41.432C483.709 40.8773 484.883 40.1947 485.864 39.384C486.675 38.8293 487.315 38.0827 487.784 37.144C488.296 36.2053 488.744 35.224 489.128 34.2C489.555 33.1333 490.003 32.1947 490.472 31.384C490.941 32.408 491.219 33.6453 491.304 35.096C491.389 36.5467 491.112 38.296 490.472 40.344C490.173 41.2827 489.661 42.136 488.936 42.904C488.253 43.6293 487.549 44.248 486.824 44.76C486.099 45.272 485.565 45.6773 485.224 45.976C484.755 46.1467 484.029 46.3813 483.048 46.68C482.067 46.936 481 47.1493 479.848 47.32C478.696 47.4907 477.608 47.5333 476.584 47.448C475.56 47.3627 474.749 47.0853 474.152 46.616C473.128 46.7013 472.019 46.36 470.824 45.592C469.629 44.7813 468.52 43.9493 467.496 43.096C467.027 42.712 466.579 42.3707 466.152 42.072C465.725 41.7307 465.341 41.4747 465 41.304C464.403 40.3653 463.933 39.2133 463.592 37.848C463.293 36.4827 463.144 35.0533 463.144 33.56C463.144 32.024 463.315 30.5733 463.656 29.208C463.741 28.8667 463.912 28.5253 464.168 28.184C464.424 27.8427 464.573 27.48 464.616 27.096C464.659 26.584 464.616 26.0507 464.488 25.496C464.36 24.9413 464.211 24.3867 464.04 23.832C463.784 22.8507 463.592 21.8907 463.464 20.952C463.379 20.0133 463.763 19.1387 464.616 18.328C465.299 18.7973 465.875 19.3733 466.344 20.056C466.813 20.696 467.283 21.3573 467.752 22.04C468.819 20.6747 470.12 19.3947 471.656 18.2C473.235 17.0053 474.963 16.024 476.84 15.256C478.717 14.4453 480.659 13.976 482.664 13.848C484.669 13.72 486.632 14.04 488.552 14.808C489.704 16.1733 490.6 17.6667 491.24 19.288C491.88 20.9093 491.752 22.7867 490.856 24.92ZM484.072 19.864C482.28 19.4373 480.531 19.4587 478.824 19.928C477.16 20.3973 475.645 21.144 474.28 22.168C472.957 23.1493 471.912 24.2587 471.144 25.496C471.699 25.9653 472.616 26.456 473.896 26.968C475.219 27.4373 476.648 27.7147 478.184 27.8C479.72 27.8853 481.064 27.6293 482.216 27.032C483.667 26.2213 484.605 25.3253 485.032 24.344C485.459 23.32 485.544 22.3813 485.288 21.528C485.075 20.6747 484.669 20.12 484.072 19.864ZM527.586 18.2C527.33 18.4987 527.181 18.7973 527.138 19.096C527.095 19.3947 527.074 19.7147 527.074 20.056C527.074 20.312 527.053 20.5893 527.01 20.888C527.01 21.1867 526.946 21.5067 526.818 21.848C526.605 22.0187 526.391 22.1893 526.178 22.36C525.965 22.488 525.773 22.616 525.602 22.744C524.962 23.256 524.343 23.6827 523.746 24.024C523.149 24.3227 522.338 24.408 521.314 24.28C521.399 24.0667 521.357 23.9173 521.186 23.832C521.058 23.704 520.887 23.576 520.674 23.448C520.503 23.3627 520.333 23.2773 520.162 23.192C519.991 23.1067 519.885 22.9787 519.842 22.808C520.141 22.0827 520.503 21.4427 520.93 20.888C521.399 20.3333 521.634 19.544 521.634 18.52C520.823 18.392 520.013 18.5413 519.202 18.968C518.434 19.352 517.709 19.8 517.026 20.312C516.77 20.4827 516.578 20.6107 516.45 20.696C515.213 21.5493 514.103 22.3813 513.122 23.192C512.183 24.0027 511.394 25.1333 510.754 26.584C510.711 27.2667 510.669 28.2693 510.626 29.592C510.583 30.9147 510.541 32.3653 510.498 33.944C510.498 35.48 510.519 36.952 510.562 38.36C510.605 39.768 510.69 40.92 510.818 41.816C510.946 42.584 511.223 43.224 511.65 43.736C512.077 44.2053 512.525 44.6533 512.994 45.08C513.463 45.5067 513.762 46.0187 513.89 46.616C513.463 46.9573 512.781 47.256 511.842 47.512C510.903 47.768 509.879 47.9173 508.77 47.96C507.703 48.0027 506.701 47.896 505.762 47.64C504.866 47.4267 504.226 47.0213 503.842 46.424C503.074 45.3147 502.946 44.2693 503.458 43.288C503.97 42.3067 504.567 41.432 505.25 40.664C505.25 40.3227 505.25 39.9387 505.25 39.512C505.293 39.0427 505.314 38.552 505.314 38.04C505.357 36.632 505.378 35.0747 505.378 33.368C505.421 31.6613 505.442 30.0613 505.442 28.568C505.485 27.032 505.485 25.8373 505.442 24.984C505.442 24.8133 505.442 24.472 505.442 23.96C505.399 23.064 505.357 21.912 505.314 20.504C505.271 19.096 505.143 17.688 504.93 16.28C504.717 14.8293 504.354 13.656 503.842 12.76C503.885 12.76 503.97 12.76 504.098 12.76C504.823 12.6747 505.677 12.632 506.658 12.632C507.682 12.632 508.599 12.824 509.41 13.208C510.263 13.592 510.775 14.3173 510.946 15.384C511.031 15.8533 511.031 16.3227 510.946 16.792C510.903 17.2613 510.839 17.752 510.754 18.264C510.669 18.6907 510.583 19.1387 510.498 19.608C510.455 20.0347 510.455 20.504 510.498 21.016C511.522 20.248 512.546 19.352 513.57 18.328C514.594 17.2613 515.682 16.28 516.834 15.384C518.029 14.488 519.351 13.8907 520.802 13.592C522.21 13.6347 523.554 14.0187 524.834 14.744C526.157 15.4693 527.074 16.6213 527.586 18.2Z" fill="#FFCDBC"/>
</g>
<defs>
<filter id="filter0_d_8_8" x="0.776001" y="0.279999" width="530.81" height="56.064" filterUnits="userSpaceOnUse" color-interpolation-filters="sRGB">
<feFlood flood-opacity="0" result="BackgroundImageFix"/>
<feColorMatrix in="SourceAlpha" type="matrix" values="0 0 0 0 0 0 0 0 0 0 0 0 0 0 0 0 0 0 127 0" result="hardAlpha"/>
<feOffset dy="4"/>
<feGaussianBlur stdDeviation="2"/>
<feComposite in2="hardAlpha" operator="out"/>
<feColorMatrix type="matrix" values="0 0 0 0 0 0 0 0 0 0 0 0 0 0 0 0 0 0 0.25 0"/>
<feBlend mode="normal" in2="BackgroundImageFix" result="effect1_dropShadow_8_8"/>
<feBlend mode="normal" in="SourceGraphic" in2="effect1_dropShadow_8_8" result="shape"/>
</filter>
</defs>
</svg>
